<svg xmlns="http://www.w3.org/2000/svg" width="860" height="190" viewBox="0 0 860 190" role="img" aria-labelledby="title desc">
  <title id="title">꿈키움센터 비전 마무리 문구</title>
  <desc id="desc">꿈키움센터는 모든 세대가 함께 배우고 즐기며, 지속가능한 마을의 미래를 만들어가는 공간입니다.</desc>
  <defs>
    <linearGradient id="paper" x1="0" x2="1" y1="0" y2="1">
      <stop offset="0" stop-color="#fffdf8"/>
      <stop offset="1" stop-color="#fbf3e4"/>
    </linearGradient>
    <filter id="softShadow" x="-10%" y="-20%" width="120%" height="140%">
      <feDropShadow dx="0" dy="12" stdDeviation="18" flood-color="#5c6b5b" flood-opacity="0.09"/>
    </filter>
  </defs>
  <rect x="12" y="18" width="836" height="154" rx="28" fill="url(#paper)" filter="url(#softShadow)"/>
  <g fill="none" stroke="#a8ba96" stroke-width="5" stroke-linecap="round" stroke-linejoin="round" opacity="0.92">
    <path d="M110 137V74"/>
    <path d="M110 94c-22-2-35-15-40-39 23 4 37 17 40 39z"/>
    <path d="M111 111c23-1 38-14 44-38-24 3-39 16-44 38z"/>
    <path d="M111 77c8-12 10-25 6-39-12 10-16 23-6 39z"/>
    <path d="M96 132c-13 7-24 9-36 6"/>
    <path d="M127 126c15 4 27 3 38-4"/>
  </g>
  <text x="214" y="77" fill="#6c746e" font-family="Pretendard, 'Noto Sans KR', 'Apple SD Gothic Neo', 'Malgun Gothic', sans-serif" font-size="31" font-weight="800" letter-spacing="0">
    꿈키움센터는 모든 세대가 함께 배우고 즐기며,
  </text>
  <text x="214" y="124" fill="#6c746e" font-family="Pretendard, 'Noto Sans KR', 'Apple SD Gothic Neo', 'Malgun Gothic', sans-serif" font-size="31" font-weight="800" letter-spacing="0">
    지속가능한 마을의 미래를 만들어가는 공간입니다.
  </text>
</svg>
