<svg xmlns="http://www.w3.org/2000/svg" width="940" height="188" viewBox="0 0 940 188" role="img" aria-labelledby="title desc">
  <title id="title">꿈키움센터 비전 마무리 문구</title>
  <desc id="desc">꿈키움센터는 모든 세대가 함께 배우고 즐기며, 지속가능한 마을의 미래를 만들어가는 공간입니다.</desc>
  <defs>
    <linearGradient id="paper" x1="0" x2="1" y1="0" y2="1">
      <stop offset="0" stop-color="#fffdf8"/>
      <stop offset="1" stop-color="#fbf2df"/>
    </linearGradient>
    <filter id="softShadow" x="-10%" y="-20%" width="120%" height="140%">
      <feDropShadow dx="0" dy="12" stdDeviation="18" flood-color="#5c6b5b" flood-opacity="0.08"/>
    </filter>
  </defs>
  <rect x="18" y="18" width="904" height="152" rx="30" fill="url(#paper)" filter="url(#softShadow)"/>
  <g fill="none" stroke="#a9ba95" stroke-width="4.2" stroke-linecap="round" stroke-linejoin="round" opacity="0.9">
    <path d="M118 139V58"/>
    <path d="M118 102c-24-4-39-21-45-48 27 5 43 22 45 48z"/>
    <path d="M119 116c25-3 42-20 50-47-28 4-45 21-50 47z"/>
    <path d="M119 72c10-14 12-30 7-48-15 12-20 28-7 48z"/>
    <path d="M104 133c-14 9-27 12-41 9"/>
    <path d="M135 128c16 6 31 5 44-4"/>
  </g>
  <text x="222" y="78" fill="#6f7872" font-family="Pretendard, 'Noto Sans KR', 'Apple SD Gothic Neo', 'Malgun Gothic', sans-serif" font-size="30" font-weight="800" letter-spacing="0">
    꿈키움센터는 모든 세대가 함께 배우고 즐기며,
  </text>
  <text x="222" y="124" fill="#6f7872" font-family="Pretendard, 'Noto Sans KR', 'Apple SD Gothic Neo', 'Malgun Gothic', sans-serif" font-size="30" font-weight="800" letter-spacing="0">
    지속가능한 마을의 미래를 만들어가는 공간입니다.
  </text>
</svg>
